<svg width="70" height="70" viewBox="0 0 70 70" fill="none" xmlns="http://www.w3.org/2000/svg">
<path d="M37.3042 61.25L8.75 32.6958V38.5291C8.75 40.075 9.3625 41.5625 10.4708 42.6416L33.1917 65.3625C35.4667 67.6375 39.1708 67.6375 41.4458 65.3625L59.5583 47.25C61.8333 44.975 61.8333 41.2708 59.5583 38.9958L37.3042 61.25Z" fill="#0C0B0F"/>
<path d="M33.1917 50.7792C34.3292 51.9167 35.8167 52.5 37.3042 52.5C38.7917 52.5 40.2792 51.9167 41.4167 50.7792L59.5292 32.6667C61.8042 30.3917 61.8042 26.6875 59.5292 24.4125L36.8083 1.69167C35.7292 0.6125 34.2417 0 32.6958 0H14.5833C11.375 0 8.75 2.625 8.75 5.83333V23.9458C8.75 25.4917 9.3625 26.9792 10.4708 28.0583L33.1917 50.7792ZM14.5833 5.83333H32.6958L55.4167 28.5542L37.3042 46.6667L14.5833 23.9458V5.83333Z" fill="#0C0B0F"/>
<path d="M21.1458 16.0417C23.1594 16.0417 24.7917 14.4094 24.7917 12.3958C24.7917 10.3823 23.1594 8.75 21.1458 8.75C19.1323 8.75 17.5 10.3823 17.5 12.3958C17.5 14.4094 19.1323 16.0417 21.1458 16.0417Z" fill="#0C0B0F"/>
</svg>
