<svg width="25" height="27" viewBox="0 0 25 27" fill="none" xmlns="http://www.w3.org/2000/svg">
<path fill-rule="evenodd" clip-rule="evenodd" d="M19.0647 11.7652C19.0647 12.924 18.8534 14.0716 18.4427 15.1422C18.0321 16.2129 17.4302 17.1857 16.6715 18.0052C15.9127 18.8246 15.0119 19.4747 14.0206 19.9181C13.0292 20.3616 11.9667 20.5899 10.8937 20.5899C9.82062 20.5899 8.75809 20.3616 7.76674 19.9181C6.77538 19.4747 5.87461 18.8246 5.11586 18.0052C4.3571 17.1857 3.75523 16.2129 3.34459 15.1422C2.93396 14.0716 2.72261 12.924 2.72261 11.7652C2.72261 9.42469 3.58349 7.18008 5.11586 5.52513C6.64823 3.87017 8.72656 2.94042 10.8937 2.94042C13.0608 2.94042 15.1391 3.87017 16.6715 5.52513C18.2038 7.18008 19.0647 9.42469 19.0647 11.7652ZM17.5758 21.0605C15.3866 22.896 12.632 23.7615 9.87282 23.4808C7.11361 23.2 4.55718 21.7941 2.72397 19.5494C0.89076 17.3046 -0.0814203 14.3896 0.00534563 11.3979C0.0921115 8.40627 1.2313 5.56275 3.191 3.44628C5.1507 1.3298 7.78358 0.0994804 10.5537 0.00577328C13.3237 -0.0879339 16.0227 0.962021 18.1013 2.94189C20.1798 4.92176 21.4815 7.6827 21.7414 10.6627C22.0014 13.6426 21.2 16.6175 19.5005 18.9818L24.5666 24.4532C24.7004 24.5878 24.8077 24.7502 24.8821 24.9306C24.9565 25.111 24.9966 25.3058 24.9998 25.5033C25.003 25.7007 24.9694 25.8969 24.9009 26.08C24.8324 26.2632 24.7304 26.4295 24.6011 26.5692C24.4718 26.7089 24.3178 26.819 24.1482 26.893C23.9786 26.9669 23.797 27.0033 23.6141 26.9998C23.4313 26.9963 23.2509 26.9531 23.0839 26.8727C22.9168 26.7923 22.7665 26.6764 22.6418 26.5319L17.5758 21.0605Z" fill="#B8B8B8"/>
</svg>
