<svg width="230" height="230" viewBox="0 0 230 230" fill="none" xmlns="http://www.w3.org/2000/svg">
<path d="M115 19.1667L38.3333 47.9167V106.279C38.3333 154.675 71.0125 199.813 115 210.833C158.987 199.813 191.667 154.675 191.667 106.279V47.9167L115 19.1667ZM172.5 106.279C172.5 144.613 148.062 180.071 115 190.9C81.9375 180.071 57.5 144.708 57.5 106.279V61.2376L115 39.6751L172.5 61.2376V106.279Z" fill="white"/>
<path d="M109.981 160.002H104.981L109.981 125.001H92.4811C89.581 125.001 89.631 123.401 90.581 121.701C91.5311 120.001 90.8311 121.301 90.9311 121.101C97.3812 109.701 107.081 92.7005 119.982 70H124.982L119.982 105.001H137.482C139.932 105.001 140.282 106.651 139.832 107.551L139.482 108.301C119.782 142.752 109.981 160.002 109.981 160.002Z" fill="white"/>
</svg>
