<svg width="46" height="76" viewBox="0 0 46 76" fill="none" xmlns="http://www.w3.org/2000/svg">
<path fill-rule="evenodd" clip-rule="evenodd" d="M20.825 0.5C18.9437 0.500093 17.1311 1.20721 15.7468 2.48112C14.3624 3.75504 13.5074 5.50269 13.3512 7.3775L11.915 24.635L5.51 28.9025C3.969 29.9297 2.70544 31.3215 1.83146 32.9544C0.957487 34.5872 0.500135 36.4105 0.5 38.2625V64.25C0.5 67.2337 1.68526 70.0952 3.79505 72.205C5.90483 74.3147 8.76631 75.5 11.75 75.5H34.25C37.2337 75.5 40.0952 74.3147 42.205 72.205C44.3147 70.0952 45.5 67.2337 45.5 64.25V38.2625C45.4999 36.4105 45.0425 34.5872 44.1685 32.9544C43.2946 31.3215 42.031 29.9297 40.49 28.9025L34.085 24.635L32.6488 7.3775C32.4926 5.50269 31.6376 3.75504 30.2532 2.48112C28.8689 1.20721 27.0563 0.500093 25.175 0.5H20.825ZM38 45.5H23C22.0054 45.5 21.0516 45.8951 20.3484 46.5984C19.6451 47.3016 19.25 48.2554 19.25 49.25C19.25 50.2446 19.6451 51.1984 20.3484 51.9016C21.0516 52.6049 22.0054 53 23 53H38V64.25C38 65.2446 37.6049 66.1984 36.9016 66.9017C36.1984 67.6049 35.2446 68 34.25 68H11.75C10.7554 68 9.80161 67.6049 9.09835 66.9017C8.39509 66.1984 8 65.2446 8 64.25V38.2625C7.99991 37.6453 8.15217 37.0376 8.44327 36.4933C8.73437 35.9491 9.15531 35.4851 9.66875 35.1425L16.0737 30.875C17.0136 30.2487 17.7999 29.4182 18.3739 28.4455C18.9479 27.4728 19.2948 26.383 19.3887 25.2575L20.825 8H25.175L26.6113 25.2575C26.7052 26.383 27.0521 27.4728 27.6261 28.4455C28.2001 29.4182 28.9864 30.2487 29.9263 30.875L36.3313 35.1425C36.8447 35.4851 37.2656 35.9491 37.5567 36.4933C37.8478 37.0376 38.0001 37.6453 38 38.2625V45.5Z" fill="black"/>
</svg>
