<svg width="257" height="190" viewBox="0 0 257 190" fill="none" xmlns="http://www.w3.org/2000/svg">
<path d="M93.2181 154.25C91.8361 164.088 87.0013 173.089 79.6015 179.601C72.2018 186.113 62.7341 189.699 52.9375 189.699C43.1409 189.699 33.6732 186.113 26.2735 179.601C18.8738 173.089 14.0389 164.088 12.6569 154.25H0.625V12.7499C0.625 9.62257 1.84977 6.62332 4.02988 4.41195C6.20999 2.20059 9.16686 0.958252 12.25 0.958252H175C178.083 0.958252 181.04 2.20059 183.22 4.41195C185.4 6.62332 186.625 9.62257 186.625 12.7499V36.3333H221.5L256.375 84.1602V154.25H232.718C231.318 164.074 226.476 173.057 219.079 179.554C211.681 186.051 202.223 189.628 192.438 189.628C182.652 189.628 173.194 186.051 165.796 179.554C158.399 173.057 153.557 164.074 152.157 154.25H93.2181ZM163.375 24.5416H23.875V119.465C28.4618 114.715 34.112 111.159 40.3448 109.101C46.5775 107.043 53.2083 106.542 59.6728 107.642C66.1372 108.742 72.244 111.41 77.4733 115.419C82.7027 119.428 86.8997 124.659 89.7074 130.667H155.668C157.621 126.504 160.236 122.719 163.375 119.465V24.5416ZM186.625 95.2916H233.125V91.931L209.782 59.9166H186.625V95.2916ZM192.438 166.042C197.064 166.042 201.501 164.177 204.772 160.859C208.043 157.541 209.881 153.041 209.881 148.348C209.881 143.656 208.043 139.155 204.772 135.837C201.501 132.519 197.064 130.655 192.438 130.655C187.811 130.655 183.374 132.519 180.103 135.837C176.832 139.155 174.994 143.656 174.994 148.348C174.994 153.041 176.832 157.541 180.103 160.859C183.374 164.177 187.811 166.042 192.438 166.042ZM70.375 148.354C70.375 146.031 69.924 143.731 69.0477 141.585C68.1713 139.439 66.8869 137.49 65.2677 135.847C63.6485 134.205 61.7262 132.902 59.6105 132.013C57.4949 131.124 55.2274 130.667 52.9375 130.667C50.6476 130.667 48.3801 131.124 46.2645 132.013C44.1488 132.902 42.2265 134.205 40.6073 135.847C38.9881 137.49 37.7037 139.439 36.8274 141.585C35.951 143.731 35.5 146.031 35.5 148.354C35.5 153.045 37.3372 157.544 40.6073 160.861C43.8775 164.178 48.3128 166.042 52.9375 166.042C57.5622 166.042 61.9975 164.178 65.2677 160.861C68.5378 157.544 70.375 153.045 70.375 148.354Z" fill="white"/>
</svg>
