<svg width="28" height="25" viewBox="0 0 28 25" fill="none" xmlns="http://www.w3.org/2000/svg">
<path d="M0 2.34375C0 2.13655 0.0921872 1.93784 0.256282 1.79132C0.420376 1.64481 0.642936 1.5625 0.875 1.5625H3.5C3.69518 1.56255 3.88474 1.62086 4.03853 1.72816C4.19232 1.83547 4.30152 1.9856 4.34875 2.15469L5.0575 4.6875H25.375C25.5035 4.68761 25.6304 4.71297 25.7466 4.7618C25.8629 4.81062 25.9657 4.88171 26.0477 4.97001C26.1297 5.0583 26.1889 5.16164 26.2212 5.27268C26.2534 5.38373 26.2579 5.49975 26.2342 5.6125L23.6092 18.1125C23.5717 18.2915 23.4653 18.4532 23.3084 18.5696C23.1515 18.686 22.954 18.7498 22.75 18.75H7C6.79601 18.7498 6.59849 18.686 6.44159 18.5696C6.2847 18.4532 6.17828 18.2915 6.14075 18.1125L3.5175 5.63594L2.8175 3.125H0.875C0.642936 3.125 0.420376 3.04269 0.256282 2.89618C0.0921872 2.74966 0 2.55095 0 2.34375ZM5.4285 6.25L7.72625 17.1875H22.0237L24.3215 6.25H5.4285ZM8.75 18.75C7.82174 18.75 6.9315 19.0792 6.27513 19.6653C5.61875 20.2513 5.25 21.0462 5.25 21.875C5.25 22.7038 5.61875 23.4987 6.27513 24.0847C6.9315 24.6708 7.82174 25 8.75 25C9.67826 25 10.5685 24.6708 11.2249 24.0847C11.8813 23.4987 12.25 22.7038 12.25 21.875C12.25 21.0462 11.8813 20.2513 11.2249 19.6653C10.5685 19.0792 9.67826 18.75 8.75 18.75ZM21 18.75C20.0717 18.75 19.1815 19.0792 18.5251 19.6653C17.8687 20.2513 17.5 21.0462 17.5 21.875C17.5 22.7038 17.8687 23.4987 18.5251 24.0847C19.1815 24.6708 20.0717 25 21 25C21.9283 25 22.8185 24.6708 23.4749 24.0847C24.1312 23.4987 24.5 22.7038 24.5 21.875C24.5 21.0462 24.1312 20.2513 23.4749 19.6653C22.8185 19.0792 21.9283 18.75 21 18.75ZM8.75 20.3125C9.21413 20.3125 9.65925 20.4771 9.98744 20.7701C10.3156 21.0632 10.5 21.4606 10.5 21.875C10.5 22.2894 10.3156 22.6868 9.98744 22.9799C9.65925 23.2729 9.21413 23.4375 8.75 23.4375C8.28587 23.4375 7.84075 23.2729 7.51256 22.9799C7.18437 22.6868 7 22.2894 7 21.875C7 21.4606 7.18437 21.0632 7.51256 20.7701C7.84075 20.4771 8.28587 20.3125 8.75 20.3125ZM21 20.3125C21.4641 20.3125 21.9092 20.4771 22.2374 20.7701C22.5656 21.0632 22.75 21.4606 22.75 21.875C22.75 22.2894 22.5656 22.6868 22.2374 22.9799C21.9092 23.2729 21.4641 23.4375 21 23.4375C20.5359 23.4375 20.0908 23.2729 19.7626 22.9799C19.4344 22.6868 19.25 22.2894 19.25 21.875C19.25 21.4606 19.4344 21.0632 19.7626 20.7701C20.0908 20.4771 20.5359 20.3125 21 20.3125Z" fill="white"/>
</svg>
