<svg width="60" height="60" viewBox="0 0 60 60" fill="none" xmlns="http://www.w3.org/2000/svg">
<path d="M15.7727 8.59863C13.7194 9.26074 12.1127 9.98777 10.1331 11.4404C9.87641 11.6855 9.62479 11.9358 9.3784 12.1911C9.40652 12.2575 9.44988 12.3394 9.51398 12.4548C9.63305 12.6695 9.83824 12.9263 10.0964 13.1802C9.70075 13.8152 9.32939 14.4651 8.98313 15.1283C8.55375 14.7721 8.16844 14.3756 7.85883 13.9307C6.96102 15.0498 6.15979 16.2432 5.46375 17.4979C5.51004 17.6896 5.64621 17.8986 5.90672 18.1787C6.21797 18.513 6.70418 18.8584 7.26914 19.153C7.03195 19.8698 6.82852 20.5832 6.66141 21.2952C5.78953 20.8991 4.99207 20.3849 4.36524 19.7316C3.65853 21.3752 3.13179 23.0905 2.79422 24.8475C2.95066 25.1327 3.22945 25.3939 3.65109 25.6716C4.24547 26.063 5.09953 26.3836 6.02789 26.5689C6.02262 27.3232 6.05719 28.0714 6.12305 28.81C4.78629 28.6139 3.49746 28.195 2.44629 27.5026C2.44043 27.4986 2.43387 27.4956 2.42801 27.4916C2.27788 29.2842 2.32082 31.0878 2.55609 32.8712C2.8268 33.279 3.27984 33.5693 3.95496 33.8014C4.82285 34.0998 6.00246 34.1933 7.2034 34.0724C7.43777 34.7898 7.70438 35.4939 8.00145 36.1818C6.36434 36.4276 4.69242 36.3718 3.24445 35.8741C3.20496 35.8605 3.16652 35.8446 3.12727 35.8302C3.59073 37.6325 4.25275 39.3778 5.10117 41.034C5.51754 41.3626 6.07969 41.5281 6.82617 41.5796C7.91602 41.6551 9.30398 41.3769 10.6275 40.8363C11.0615 41.4509 11.5208 42.0471 12.0045 42.6234C10.297 43.4103 8.44664 43.8744 6.72363 43.766C7.89005 45.4792 9.26129 47.0435 10.8069 48.4242C11.3061 48.5937 11.8968 48.5959 12.6086 48.457C13.7336 48.2375 15.0525 47.5894 16.2449 46.6992C16.2458 46.6998 16.2479 46.6986 16.2486 46.6992C16.8511 47.1648 17.473 47.6046 18.1126 48.0176C16.7092 49.1789 15.1097 50.0913 13.4802 50.5043C14.8569 51.4358 16.3229 52.2282 17.8563 52.8698C18.4349 52.9194 19.0622 52.7573 19.7716 52.4121C20.6707 51.9744 21.6209 51.2107 22.4705 50.2699C24.4669 51.0648 26.5406 51.5848 28.6302 51.7822L28.8388 49.5996C27.1668 49.4414 25.4891 49.0406 23.8511 48.435C24.6577 47.1333 25.2116 45.7194 25.3675 44.5166C25.5055 43.4486 25.3772 42.6232 24.9243 42.0043C23.9774 41.8192 23.0621 41.5426 22.185 41.184C22.1648 41.9422 21.9851 42.7059 21.6905 43.4216C21.2516 44.4884 20.5748 45.5073 19.7534 46.4357C19.1235 46.0482 18.5113 45.6327 17.9186 45.1905C18.6943 44.3489 19.3158 43.4362 19.6654 42.5866C20.1114 41.5031 20.1544 40.6439 19.7386 39.9136C18.8306 39.3327 17.9804 38.6553 17.1935 37.8956C16.9857 38.3995 16.7029 38.8765 16.3695 39.3129C15.7277 40.1525 14.8962 40.8961 13.9597 41.5283C13.4769 40.9752 13.0161 40.403 12.5828 39.8071C13.4209 39.257 14.1409 38.6235 14.63 37.9834C15.2204 37.2107 15.4761 36.5291 15.388 35.863C14.7982 35.0846 14.2693 34.2618 13.806 33.4021C13.5379 33.7174 13.2371 34.0035 12.9087 34.2555C12.1167 34.862 11.1745 35.3284 10.1658 35.6653C9.86168 34.9985 9.58488 34.3179 9.34547 33.6219C10.2158 33.3401 11.0013 32.9559 11.5755 32.516C12.243 32.0048 12.607 31.5146 12.6926 30.9633C12.3333 30.0125 12.0432 29.037 11.8247 28.0444C11.6058 28.1703 11.3782 28.2805 11.1436 28.374C10.2705 28.7194 9.29789 28.8936 8.29828 28.9307C8.21913 28.2021 8.17872 27.4698 8.17723 26.7369C8.9925 26.7061 9.75504 26.5685 10.3382 26.3379C10.8772 26.1246 11.2282 25.8926 11.433 25.6055C11.3108 24.4451 11.279 23.277 11.3378 22.1118C11.2616 22.1239 11.1866 22.1329 11.1107 22.1411C10.3344 22.226 9.52207 22.1586 8.71934 21.9837C8.87988 21.2829 9.0791 20.5763 9.31629 19.8669C9.88699 19.9763 10.434 20.0102 10.8725 19.9623C11.1789 19.9288 11.4036 19.8737 11.5757 19.7975C11.7366 18.7654 11.9704 17.746 12.2753 16.7469C11.7852 16.6607 11.3045 16.5018 10.8397 16.2928C11.1792 15.6378 11.5445 14.9965 11.9347 14.3704C12.2176 14.4832 12.4874 14.5655 12.7184 14.6012C12.8481 14.6211 12.9554 14.6323 13.0444 14.634C13.2724 14.0903 13.5157 13.5594 13.7805 13.0446C14.4717 11.6616 15.2354 10.2028 15.7727 8.59887V8.59863ZM44.4104 8.59863C44.9475 10.2025 45.7112 11.6613 46.4026 13.0445C46.6697 13.5644 46.9164 14.0946 47.1421 14.6338C47.2302 14.6319 47.3366 14.6205 47.4643 14.601C47.6964 14.5651 47.9678 14.4838 48.2518 14.3701C48.6421 14.9963 49.0073 15.6376 49.3468 16.2927C48.8809 16.502 48.3981 16.6607 47.9078 16.7469C48.2081 17.7301 48.4437 18.7508 48.607 19.7973C48.7798 19.8744 49.0059 19.9286 49.314 19.9623C49.7525 20.0104 50.2996 19.9764 50.8703 19.867C51.1024 20.5638 51.3004 21.2715 51.4636 21.9875C50.6624 22.1618 49.8509 22.2261 49.0759 22.1414C48.9988 22.1335 48.922 22.1238 48.8454 22.1121C48.9054 23.2773 48.8748 24.4453 48.7538 25.6057C48.9588 25.8928 49.3098 26.1248 49.8489 26.3381C50.4309 26.5684 51.1921 26.7061 52.0058 26.7373C52.0043 27.4701 51.964 28.2024 51.8851 28.931C50.8867 28.8935 49.9154 28.7191 49.0433 28.3744C48.8087 28.2807 48.5811 28.1705 48.3621 28.0446C48.1434 29.0359 47.8533 30.0101 47.4942 30.9596C47.578 31.5128 47.9389 32.004 48.6075 32.5161C49.1822 32.9559 49.9675 33.34 50.8379 33.6219C50.5984 34.318 50.3217 34.9985 50.0176 35.6654C49.01 35.3285 48.0695 34.8613 47.2784 34.2557C46.9487 34.0038 46.6467 33.7177 46.3774 33.4022C45.9075 34.272 45.379 35.0948 44.7954 35.8631C44.7063 36.529 44.963 37.211 45.5536 37.9836C46.042 38.6231 46.7621 39.2575 47.6005 39.8074C47.1673 40.4033 46.7064 40.9753 46.2236 41.5286C45.2872 40.8962 44.4557 40.1528 43.8139 39.313C43.4814 38.8777 43.2006 38.4015 42.9936 37.8993C42.2073 38.6584 41.3558 39.3332 40.4483 39.9135C40.0327 40.6439 40.0757 41.5031 40.5217 42.5868C40.8715 43.4364 41.4929 44.3489 42.2687 45.1907C41.6747 45.6328 41.0613 46.0482 40.4303 46.4357C39.6096 45.5073 38.9357 44.4884 38.4967 43.4216C38.2022 42.7061 38.0224 41.9423 38.0021 41.1843C37.1168 41.5463 36.1982 41.8211 35.2594 42.0046C34.8055 42.6233 34.6781 43.4488 34.8164 44.5167C34.9719 45.7195 35.5289 47.1335 36.336 48.4352C34.6984 49.0409 33.0204 49.4415 31.3482 49.5997L31.5533 51.7823C33.6439 51.5846 35.7189 51.0656 37.7167 50.2699C38.5663 51.2107 39.5164 51.9744 40.4155 52.4121C41.1252 52.7575 41.7524 52.9195 42.3309 52.8698C43.8645 52.2284 45.3304 51.4359 46.707 50.5042C45.0785 50.0917 43.477 49.1808 42.0745 48.021C42.7123 47.6103 43.3331 47.1663 43.9385 46.6991C45.1315 47.5902 46.4529 48.2373 47.5786 48.4569C48.2883 48.5954 48.8782 48.5958 49.3767 48.4276C50.9238 47.0459 52.2962 45.4804 53.4636 43.7659C51.7404 43.8743 49.8864 43.4102 48.1791 42.6233C48.6619 42.0476 49.1243 41.4526 49.5595 40.8362C50.8832 41.3764 52.271 41.6549 53.3611 41.5794C54.1073 41.5278 54.6696 41.3624 55.0857 41.0338C55.9341 39.3775 56.5962 37.6322 57.0596 35.83C57.0204 35.8444 56.982 35.8604 56.9425 35.8739C55.4946 36.3716 53.8226 36.4274 52.1854 36.1815C52.4837 35.491 52.7501 34.7871 52.9837 34.0721C54.1833 34.1925 55.3615 34.0991 56.2284 33.8011C56.904 33.5691 57.3593 33.279 57.6309 32.871C57.8649 31.0874 57.9067 29.2839 57.7556 27.4914C57.7506 27.4946 57.746 27.499 57.741 27.5024C56.6898 28.1947 55.4007 28.6137 54.0641 28.8097C54.1301 28.0712 54.1644 27.323 54.1593 26.5685C55.0874 26.3831 55.9417 26.0626 56.5358 25.6712C56.9569 25.3939 57.2326 25.1317 57.3893 24.8471C57.0515 23.0902 56.5247 21.375 55.818 19.7313C55.1914 20.3841 54.3962 20.8985 53.5256 21.2951C53.355 20.5722 53.1521 19.8574 52.9177 19.1527C53.4807 18.8582 53.9655 18.5123 54.2763 18.1785C54.5355 17.9 54.675 17.6921 54.7232 17.5011C54.0272 16.2453 53.2259 15.0507 52.3279 13.9304C52.0182 14.3753 51.6329 14.7718 51.2038 15.1281C50.8575 14.4648 50.4861 13.8149 50.0905 13.1797C50.3493 12.9259 50.5538 12.6688 50.6727 12.4543C50.7357 12.3407 50.7805 12.2603 50.8082 12.1944C50.5607 11.9378 50.308 11.6863 50.0502 11.4401C48.0705 9.98742 46.4639 9.26039 44.4105 8.59828L44.4104 8.59863ZM17.9074 15.7398L20.7309 30.9411H39.9609L42.6452 16.3513L35.8557 23.7927L30.5859 15.9193L25.3125 23.7928L17.9077 15.7399L17.9074 15.7398ZM21.1375 33.1311L21.555 35.3831H39.1441L39.5582 33.131H21.1377L21.1375 33.1311Z" fill="#0C0B0F"/>
</svg>
