<svg width="70" height="63" viewBox="0 0 70 63" fill="none" xmlns="http://www.w3.org/2000/svg">
<path d="M46.6667 22.3125L43.75 21.525C42.875 21.2625 42 20.2125 42 19.1625V7.875C42 6.5625 40.5417 5.25 39.0833 5.25H30.3333C28.5833 5.25 27.4167 6.5625 27.4167 7.875V19.1625C27.4167 20.2125 26.5417 21.2625 25.375 21.7875L22.75 22.575C20.4167 23.3625 18.6667 25.2 18.6667 27.5625V52.5C18.6667 55.3875 21.2917 57.75 24.5 57.75H44.9167C48.125 57.75 50.75 55.3875 50.75 52.5V27.3C50.75 25.2 49.2917 23.1 46.6667 22.3125ZM33.25 10.5H36.1667V13.125H33.25V10.5ZM24.5 27.3L27.125 26.5125C30.9167 25.4625 33.25 22.575 33.25 19.1625V18.375H36.1667V19.1625C36.1667 22.575 38.5 25.4625 42 26.5125L44.9167 27.3V31.5H24.5V27.3ZM44.9167 52.5H24.5V47.25H44.9167V52.5Z" fill="#0C0B0F"/>
</svg>
