<svg width="16" height="16" viewBox="0 0 16 16" fill="none" xmlns="http://www.w3.org/2000/svg">
<path d="M12.596 11.596L9.061 15.132C8.9217 15.2714 8.7563 15.382 8.57425 15.4574C8.3922 15.5328 8.19706 15.5717 8 15.5717C7.80294 15.5717 7.6078 15.5328 7.42575 15.4574C7.2437 15.382 7.0783 15.2714 6.939 15.132L3.404 11.596C2.80038 10.9924 2.32155 10.2759 1.99484 9.4873C1.66814 8.69869 1.49997 7.85346 1.49992 6.99985C1.49987 6.14625 1.66796 5.301 1.99457 4.51235C2.32119 3.72371 2.79994 3.00712 3.4035 2.4035C4.00705 1.79988 4.72359 1.32105 5.5122 0.994345C6.30081 0.667642 7.14604 0.499467 7.99965 0.49942C8.85325 0.499374 9.6985 0.667457 10.4871 0.994074C11.2758 1.32069 11.9924 1.79944 12.596 2.403C13.1997 3.00659 13.6785 3.72318 14.0052 4.51186C14.332 5.30053 14.5001 6.14583 14.5001 6.9995C14.5001 7.85316 14.332 8.69847 14.0052 9.48714C13.6785 10.2758 13.1997 10.9924 12.596 11.596ZM11.536 3.464C11.0716 2.99965 10.5204 2.6313 9.91367 2.37999C9.30696 2.12869 8.65669 1.99934 8 1.99934C7.3433 1.99934 6.69304 2.12869 6.08633 2.37999C5.47962 2.6313 4.92835 2.99965 4.464 3.464C3.99964 3.92835 3.6313 4.47962 3.37999 5.08633C3.12869 5.69304 2.99934 6.3433 2.99934 7C2.99934 7.6567 3.12869 8.30696 3.37999 8.91367C3.6313 9.52038 3.99965 10.0716 4.464 10.536L8 14.07L11.536 10.536C12.0004 10.0717 12.3688 9.52043 12.6202 8.91372C12.8716 8.30701 13.0009 7.65672 13.0009 7C13.0009 6.34328 12.8716 5.69299 12.6202 5.08628C12.3688 4.47956 12.0004 3.92831 11.536 3.464ZM8 9C7.73366 9.00602 7.4688 8.95877 7.22097 8.86103C6.97315 8.76328 6.74735 8.61701 6.55683 8.4308C6.36631 8.24458 6.21491 8.02218 6.11153 7.77666C6.00814 7.53113 5.95485 7.26742 5.95478 7.00101C5.95472 6.7346 6.00787 6.47087 6.11114 6.22529C6.2144 5.97971 6.36568 5.75723 6.55611 5.57092C6.74654 5.38462 6.97227 5.23823 7.22004 5.14036C7.46782 5.04249 7.73266 4.99511 7.999 5.001C8.52156 5.01256 9.01883 5.22822 9.38437 5.60184C9.7499 5.97545 9.95465 6.47732 9.95478 7.00001C9.95491 7.5227 9.75042 8.02467 9.38507 8.39847C9.01972 8.77226 8.52255 8.98818 8 9Z" fill="white"/>
</svg>
