<svg width="60" height="60" viewBox="0 0 60 60" fill="none" xmlns="http://www.w3.org/2000/svg">
<path d="M22.5 7.5C23.2275 7.4999 23.9463 7.65858 24.6062 7.96496C25.2661 8.27134 25.8512 8.71804 26.3206 9.27388C26.79 9.82972 27.1325 10.4813 27.3241 11.1832C27.5157 11.885 27.5519 12.6202 27.43 13.3375L32.3625 14.1625C32.5522 13.0359 32.548 11.8852 32.35 10.76C33.2961 10.1675 34.4132 9.90871 35.5234 10.0247C36.6336 10.1408 37.6731 10.625 38.4762 11.4002C39.2794 12.1755 39.8 13.1972 39.9552 14.3026C40.1104 15.408 39.8912 16.5336 39.3325 17.5H12.5C12.112 17.4996 11.7293 17.4088 11.3824 17.2349C11.0356 17.0611 10.7339 16.8088 10.5014 16.4982C10.2688 16.1875 10.1118 15.827 10.0427 15.4452C9.97357 15.0634 9.9943 14.6707 10.1032 14.2982C10.2121 13.9258 10.4063 13.5838 10.6702 13.2994C10.9342 13.015 11.2607 12.7959 11.624 12.6595C11.9873 12.5231 12.3773 12.4732 12.7632 12.5136C13.1492 12.554 13.5204 12.6838 13.8475 12.8925C14.1842 13.1082 14.5678 13.2399 14.966 13.2767C15.3642 13.3135 15.7654 13.2542 16.136 13.1038C16.5065 12.9534 16.8356 12.7164 17.0955 12.4125C17.3555 12.1086 17.5388 11.7469 17.63 11.3575C17.8881 10.2597 18.5096 9.28134 19.3936 8.58112C20.2776 7.88091 21.3723 7.49993 22.5 7.5ZM26.29 3.2425C24.0308 2.31571 21.5106 2.24802 19.2049 3.05219C16.8992 3.85635 14.9677 5.47675 13.775 7.6075C12.17 7.33015 10.5184 7.58283 9.06971 8.32733C7.62105 9.07184 6.45413 10.2677 5.74533 11.7342C5.03652 13.2006 4.82437 14.8579 5.14094 16.4557C5.4575 18.0534 6.28558 19.5046 7.5 20.59V50C7.5 51.3261 8.02678 52.5978 8.96446 53.5355C9.90214 54.4732 11.1739 55 12.5 55H37.5C38.8261 55 40.0978 54.4732 41.0355 53.5355C41.9732 52.5978 42.5 51.3261 42.5 50H47.5C48.8261 50 50.0978 49.4732 51.0355 48.5355C51.9732 47.5978 52.5 46.3261 52.5 45V27.5C52.5 26.1739 51.9732 24.9021 51.0355 23.9645C50.0978 23.0268 48.8261 22.5 47.5 22.5H42.5V21.615C44.0541 19.8554 44.9396 17.605 45.0014 15.2582C45.0631 12.9113 44.2972 10.6175 42.8377 8.77859C41.3783 6.93967 39.3184 5.67285 37.0188 5.20004C34.7192 4.72723 32.3266 5.07856 30.26 6.1925C29.2038 4.89302 27.8389 3.87883 26.29 3.2425ZM42.5 27.5H47.5V45H42.5V27.5ZM37.5 22.5V50H12.5V22.5H37.5ZM17.5 27.5V45H22.5V27.5H17.5ZM32.5 27.5V45H27.5V27.5H32.5Z" fill="#0C0B0F"/>
</svg>
